<?xml version="1.0" encoding="UTF-8"?>
<svg xmlns="http://www.w3.org/2000/svg" xmlns:xlink="http://www.w3.org/1999/xlink" width="500pt" height="286pt" viewBox="0 0 500 286">
<defs>
<g>
<g id="glyph-0-0">
<path d="M 4.25 -7.765625 L 7.109375 -7.765625 L 7.109375 -8.75 L 0.25 -8.75 L 0.25 -7.765625 L 3.125 -7.765625 L 3.125 0 L 4.25 0 Z M 4.25 -7.765625 "/>
</g>
<g id="glyph-0-1">
<path d="M 1.796875 -6.28125 L 0.796875 -6.28125 L 0.796875 0 L 1.796875 0 Z M 1.796875 -8.75 L 0.796875 -8.75 L 0.796875 -7.484375 L 1.796875 -7.484375 Z M 1.796875 -8.75 "/>
</g>
<g id="glyph-0-2">
<path d="M 0.84375 -6.28125 L 0.84375 0 L 1.84375 0 L 1.84375 -3.953125 C 1.84375 -4.859375 2.515625 -5.59375 3.328125 -5.59375 C 4.0625 -5.59375 4.484375 -5.140625 4.484375 -4.328125 L 4.484375 0 L 5.5 0 L 5.5 -3.953125 C 5.5 -4.859375 6.15625 -5.59375 6.96875 -5.59375 C 7.703125 -5.59375 8.140625 -5.125 8.140625 -4.328125 L 8.140625 0 L 9.140625 0 L 9.140625 -4.71875 C 9.140625 -5.84375 8.5 -6.46875 7.3125 -6.46875 C 6.484375 -6.46875 5.96875 -6.21875 5.390625 -5.515625 C 5.015625 -6.1875 4.515625 -6.46875 3.703125 -6.46875 C 2.859375 -6.46875 2.296875 -6.15625 1.765625 -5.40625 L 1.765625 -6.28125 Z M 0.84375 -6.28125 "/>
</g>
<g id="glyph-0-3">
<path d="M 6.15625 -2.8125 C 6.15625 -3.765625 6.078125 -4.34375 5.90625 -4.8125 C 5.5 -5.84375 4.53125 -6.46875 3.359375 -6.46875 C 1.609375 -6.46875 0.484375 -5.140625 0.484375 -3.0625 C 0.484375 -0.984375 1.5625 0.28125 3.34375 0.28125 C 4.78125 0.28125 5.765625 -0.546875 6.03125 -1.90625 L 5.015625 -1.90625 C 4.734375 -1.078125 4.171875 -0.640625 3.375 -0.640625 C 2.734375 -0.640625 2.203125 -0.9375 1.859375 -1.46875 C 1.625 -1.828125 1.53125 -2.1875 1.53125 -2.8125 Z M 1.546875 -3.625 C 1.625 -4.78125 2.34375 -5.546875 3.34375 -5.546875 C 4.375 -5.546875 5.078125 -4.75 5.078125 -3.625 Z M 1.546875 -3.625 "/>
</g>
<g id="glyph-0-4">
<path d="M 3.296875 -8.671875 C 2.515625 -8.671875 1.78125 -8.3125 1.34375 -7.734375 C 0.796875 -6.953125 0.515625 -5.8125 0.515625 -4.203125 C 0.515625 -1.265625 1.46875 0.28125 3.296875 0.28125 C 5.09375 0.28125 6.078125 -1.265625 6.078125 -4.125 C 6.078125 -5.8125 5.8125 -6.9375 5.25 -7.734375 C 4.8125 -8.328125 4.109375 -8.671875 3.296875 -8.671875 Z M 3.296875 -7.734375 C 4.4375 -7.734375 5 -6.578125 5 -4.21875 C 5 -1.75 4.453125 -0.59375 3.28125 -0.59375 C 2.15625 -0.59375 1.59375 -1.796875 1.59375 -4.1875 C 1.59375 -6.578125 2.15625 -7.734375 3.296875 -7.734375 Z M 3.296875 -7.734375 "/>
</g>
<g id="glyph-0-5">
<path d="M 5.71875 -8.515625 L 1.3125 -8.515625 L 0.6875 -3.875 L 1.65625 -3.875 C 2.140625 -4.46875 2.5625 -4.671875 3.234375 -4.671875 C 4.375 -4.671875 5.078125 -3.890625 5.078125 -2.625 C 5.078125 -1.40625 4.375 -0.65625 3.21875 -0.65625 C 2.296875 -0.65625 1.734375 -1.125 1.46875 -2.09375 L 0.421875 -2.09375 C 0.5625 -1.390625 0.6875 -1.0625 0.9375 -0.75 C 1.421875 -0.09375 2.28125 0.28125 3.234375 0.28125 C 4.953125 0.28125 6.15625 -0.96875 6.15625 -2.765625 C 6.15625 -4.453125 5.046875 -5.609375 3.40625 -5.609375 C 2.8125 -5.609375 2.328125 -5.453125 1.84375 -5.09375 L 2.171875 -7.46875 L 5.71875 -7.46875 Z M 5.71875 -8.515625 "/>
</g>
<g id="glyph-0-6">
<path d="M 3.109375 -6.1875 L 3.109375 0 L 4.15625 0 L 4.15625 -8.671875 L 3.46875 -8.671875 C 3.09375 -7.34375 2.859375 -7.15625 1.21875 -6.953125 L 1.21875 -6.1875 Z M 3.109375 -6.1875 "/>
</g>
<g id="glyph-0-7">
<path d="M 6.078125 -1.046875 L 1.59375 -1.046875 C 1.703125 -1.765625 2.09375 -2.21875 3.125 -2.859375 L 4.328125 -3.53125 C 5.515625 -4.1875 6.125 -5.078125 6.125 -6.140625 C 6.125 -6.859375 5.84375 -7.53125 5.34375 -8 C 4.84375 -8.453125 4.21875 -8.671875 3.40625 -8.671875 C 2.328125 -8.671875 1.53125 -8.296875 1.0625 -7.546875 C 0.75 -7.09375 0.625 -6.546875 0.59375 -5.671875 L 1.65625 -5.671875 C 1.6875 -6.265625 1.765625 -6.609375 1.90625 -6.90625 C 2.1875 -7.421875 2.734375 -7.75 3.375 -7.75 C 4.328125 -7.75 5.046875 -7.0625 5.046875 -6.125 C 5.046875 -5.421875 4.65625 -4.828125 3.90625 -4.390625 L 2.796875 -3.75 C 1.015625 -2.71875 0.5 -1.90625 0.40625 -0.015625 L 6.078125 -0.015625 Z M 6.078125 -1.046875 "/>
</g>
<g id="glyph-0-8">
<path d="M 3.09375 -6.28125 L 2.046875 -6.28125 L 2.046875 -7.265625 C 2.046875 -7.6875 2.28125 -7.90625 2.75 -7.90625 C 2.828125 -7.90625 2.875 -7.90625 3.09375 -7.890625 L 3.09375 -8.71875 C 2.875 -8.765625 2.734375 -8.78125 2.53125 -8.78125 C 1.609375 -8.78125 1.0625 -8.25 1.0625 -7.359375 L 1.0625 -6.28125 L 0.21875 -6.28125 L 0.21875 -5.46875 L 1.0625 -5.46875 L 1.0625 0 L 2.046875 0 L 2.046875 -5.46875 L 3.09375 -5.46875 Z M 3.09375 -6.28125 "/>
</g>
<g id="glyph-0-9">
<path d="M 5.65625 -4.171875 C 5.609375 -4.78125 5.46875 -5.1875 5.234375 -5.53125 C 4.796875 -6.125 4.046875 -6.46875 3.171875 -6.46875 C 1.46875 -6.46875 0.375 -5.125 0.375 -3.03125 C 0.375 -1.015625 1.453125 0.28125 3.15625 0.28125 C 4.65625 0.28125 5.609375 -0.625 5.71875 -2.15625 L 4.71875 -2.15625 C 4.546875 -1.15625 4.03125 -0.640625 3.1875 -0.640625 C 2.078125 -0.640625 1.421875 -1.546875 1.421875 -3.03125 C 1.421875 -4.609375 2.0625 -5.546875 3.15625 -5.546875 C 4 -5.546875 4.53125 -5.046875 4.640625 -4.171875 Z M 5.65625 -4.171875 "/>
</g>
<g id="glyph-0-10">
<path d="M 3.421875 0 L 5.828125 -6.28125 L 4.703125 -6.28125 L 2.921875 -1.1875 L 1.25 -6.28125 L 0.125 -6.28125 L 2.328125 0 Z M 3.421875 0 "/>
</g>
<g id="glyph-0-11">
<path d="M 6.640625 0 L 8.5 -6.28125 L 7.375 -6.28125 L 6.125 -1.390625 L 4.890625 -6.28125 L 3.65625 -6.28125 L 2.453125 -1.390625 L 1.171875 -6.28125 L 0.078125 -6.28125 L 1.890625 0 L 3.03125 0 L 4.234375 -4.9375 L 5.515625 0 Z M 6.640625 0 "/>
</g>
<g id="glyph-0-12">
<path d="M 0.640625 -8.75 L 0.640625 0 L 1.546875 0 L 1.546875 -0.796875 C 2.03125 -0.078125 2.65625 0.28125 3.546875 0.28125 C 5.203125 0.28125 6.28125 -1.078125 6.28125 -3.171875 C 6.28125 -5.203125 5.25 -6.46875 3.59375 -6.46875 C 2.71875 -6.46875 2.109375 -6.140625 1.640625 -5.4375 L 1.640625 -8.75 Z M 3.390625 -5.53125 C 4.515625 -5.53125 5.234375 -4.5625 5.234375 -3.0625 C 5.234375 -1.625 4.484375 -0.65625 3.390625 -0.65625 C 2.328125 -0.65625 1.640625 -1.625 1.640625 -3.09375 C 1.640625 -4.578125 2.328125 -5.53125 3.390625 -5.53125 Z M 3.390625 -5.53125 "/>
</g>
<g id="glyph-0-13">
<path d="M 3.265625 -6.46875 C 1.484375 -6.46875 0.4375 -5.203125 0.4375 -3.09375 C 0.4375 -0.96875 1.484375 0.28125 3.28125 0.28125 C 5.046875 0.28125 6.125 -0.984375 6.125 -3.046875 C 6.125 -5.234375 5.09375 -6.46875 3.265625 -6.46875 Z M 3.28125 -5.546875 C 4.40625 -5.546875 5.078125 -4.625 5.078125 -3.0625 C 5.078125 -1.578125 4.375 -0.640625 3.28125 -0.640625 C 2.15625 -0.640625 1.46875 -1.578125 1.46875 -3.09375 C 1.46875 -4.625 2.15625 -5.546875 3.28125 -5.546875 Z M 3.28125 -5.546875 "/>
</g>
<g id="glyph-1-0">
<path d="M -6.28125 -3.046875 L -6.28125 -2.015625 L -8.015625 -2.015625 L -8.015625 -1.015625 L -6.28125 -1.015625 L -6.28125 -0.171875 L -5.46875 -0.171875 L -5.46875 -1.015625 L -0.71875 -1.015625 C -0.078125 -1.015625 0.28125 -1.453125 0.28125 -2.234375 C 0.28125 -2.5 0.25 -2.71875 0.1875 -3.046875 L -0.640625 -3.046875 C -0.609375 -2.90625 -0.59375 -2.765625 -0.59375 -2.5625 C -0.59375 -2.140625 -0.71875 -2.015625 -1.15625 -2.015625 L -5.46875 -2.015625 L -5.46875 -3.046875 Z M -6.28125 -3.046875 "/>
</g>
<g id="glyph-1-1">
<path d="M -4.53125 -5.25 C -5.765625 -5.25 -6.46875 -4.421875 -6.46875 -2.96875 C -6.46875 -1.515625 -5.71875 -0.5625 -4.546875 -0.5625 C -3.5625 -0.5625 -3.09375 -1.0625 -2.734375 -2.5625 L -2.515625 -3.484375 C -2.34375 -4.1875 -2.09375 -4.46875 -1.640625 -4.46875 C -1.046875 -4.46875 -0.640625 -3.875 -0.640625 -3 C -0.640625 -2.453125 -0.796875 -2 -1.0625 -1.75 C -1.25 -1.59375 -1.421875 -1.53125 -1.875 -1.46875 L -1.875 -0.40625 C -0.421875 -0.453125 0.28125 -1.265625 0.28125 -2.921875 C 0.28125 -4.5 -0.5 -5.515625 -1.71875 -5.515625 C -2.65625 -5.515625 -3.171875 -4.984375 -3.46875 -3.734375 L -3.703125 -2.765625 C -3.890625 -1.953125 -4.15625 -1.609375 -4.59375 -1.609375 C -5.1875 -1.609375 -5.546875 -2.125 -5.546875 -2.9375 C -5.546875 -3.75 -5.203125 -4.171875 -4.53125 -4.203125 Z M -4.53125 -5.25 "/>
</g>
<g id="glyph-1-2">
<path d="M -8.75 -2.828125 C -7.171875 -1.625 -4.984375 -0.875 -3.109375 -0.875 C -1.21875 -0.875 0.96875 -1.625 2.546875 -2.828125 L 2.546875 -3.484375 C 0.828125 -2.4375 -1.1875 -1.84375 -3.109375 -1.84375 C -5.015625 -1.84375 -7.046875 -2.4375 -8.75 -3.484375 Z M -8.75 -2.828125 "/>
</g>
<g id="glyph-1-3">
<path d="M -8.75 -0.640625 L 0 -0.640625 L 0 -1.546875 L -0.796875 -1.546875 C -0.078125 -2.03125 0.28125 -2.65625 0.28125 -3.546875 C 0.28125 -5.203125 -1.078125 -6.28125 -3.171875 -6.28125 C -5.203125 -6.28125 -6.46875 -5.25 -6.46875 -3.59375 C -6.46875 -2.71875 -6.140625 -2.109375 -5.4375 -1.640625 L -8.75 -1.640625 Z M -5.53125 -3.390625 C -5.53125 -4.515625 -4.5625 -5.234375 -3.0625 -5.234375 C -1.625 -5.234375 -0.65625 -4.484375 -0.65625 -3.390625 C -0.65625 -2.328125 -1.625 -1.640625 -3.09375 -1.640625 C -4.578125 -1.640625 -5.53125 -2.328125 -5.53125 -3.390625 Z M -5.53125 -3.390625 "/>
</g>
<g id="glyph-1-4">
<path d="M -0.59375 -6.421875 C -0.5625 -6.3125 -0.5625 -6.265625 -0.5625 -6.203125 C -0.5625 -5.859375 -0.75 -5.65625 -1.0625 -5.65625 L -4.75 -5.65625 C -5.875 -5.65625 -6.46875 -4.84375 -6.46875 -3.296875 C -6.46875 -2.375 -6.203125 -1.640625 -5.734375 -1.21875 C -5.40625 -0.921875 -5.046875 -0.796875 -4.421875 -0.78125 L -4.421875 -1.78125 C -5.203125 -1.875 -5.546875 -2.328125 -5.546875 -3.265625 C -5.546875 -4.171875 -5.203125 -4.671875 -4.609375 -4.671875 L -4.34375 -4.671875 C -3.90625 -4.65625 -3.75 -4.4375 -3.640625 -3.625 C -3.46875 -2.203125 -3.421875 -1.984375 -3.265625 -1.609375 C -2.953125 -0.875 -2.40625 -0.5 -1.578125 -0.5 C -0.4375 -0.5 0.28125 -1.296875 0.28125 -2.5625 C 0.28125 -3.359375 0 -4 -0.640625 -4.703125 C 0 -4.78125 0.28125 -5.09375 0.28125 -5.734375 C 0.28125 -5.953125 0.25 -6.078125 0.171875 -6.421875 Z M -1.984375 -4.671875 C -1.640625 -4.671875 -1.4375 -4.578125 -1.15625 -4.265625 C -0.796875 -3.859375 -0.59375 -3.375 -0.59375 -2.78125 C -0.59375 -2 -0.96875 -1.546875 -1.609375 -1.546875 C -2.265625 -1.546875 -2.609375 -1.984375 -2.765625 -3.0625 C -2.90625 -4.125 -2.953125 -4.328125 -3.109375 -4.671875 Z M -1.984375 -4.671875 "/>
</g>
<g id="glyph-1-5">
<path d="M -2.8125 -6.15625 C -3.765625 -6.15625 -4.34375 -6.078125 -4.8125 -5.90625 C -5.84375 -5.5 -6.46875 -4.53125 -6.46875 -3.359375 C -6.46875 -1.609375 -5.140625 -0.484375 -3.0625 -0.484375 C -0.984375 -0.484375 0.28125 -1.5625 0.28125 -3.34375 C 0.28125 -4.78125 -0.546875 -5.765625 -1.90625 -6.03125 L -1.90625 -5.015625 C -1.078125 -4.734375 -0.640625 -4.171875 -0.640625 -3.375 C -0.640625 -2.734375 -0.9375 -2.203125 -1.46875 -1.859375 C -1.828125 -1.625 -2.1875 -1.53125 -2.8125 -1.53125 Z M -3.625 -1.546875 C -4.78125 -1.625 -5.546875 -2.34375 -5.546875 -3.34375 C -5.546875 -4.375 -4.75 -5.078125 -3.625 -5.078125 Z M -3.625 -1.546875 "/>
</g>
<g id="glyph-1-6">
<path d="M 1.515625 -6.9375 L 1.515625 0.265625 L 2.109375 0.265625 L 2.109375 -6.9375 Z M 1.515625 -6.9375 "/>
</g>
<g id="glyph-1-7">
<path d="M 2.609375 -0.640625 L 2.609375 -1.65625 L -0.65625 -1.65625 C -0.015625 -2.1875 0.28125 -2.765625 0.28125 -3.59375 C 0.28125 -5.21875 -1.03125 -6.28125 -3.03125 -6.28125 C -5.140625 -6.28125 -6.46875 -5.25 -6.46875 -3.578125 C -6.46875 -2.71875 -6.078125 -2.046875 -5.34375 -1.578125 L -6.28125 -1.578125 L -6.28125 -0.640625 Z M -5.53125 -3.40625 C -5.53125 -4.515625 -4.5625 -5.234375 -3.0625 -5.234375 C -1.625 -5.234375 -0.65625 -4.5 -0.65625 -3.40625 C -0.65625 -2.34375 -1.625 -1.65625 -3.09375 -1.65625 C -4.578125 -1.65625 -5.53125 -2.34375 -5.53125 -3.40625 Z M -5.53125 -3.40625 "/>
</g>
<g id="glyph-1-8">
<path d="M -8.75 -1.828125 L -8.75 -0.8125 L 0 -0.8125 L 0 -1.828125 Z M -8.75 -1.828125 "/>
</g>
<g id="glyph-1-9">
<path d="M -6.46875 -3.265625 C -6.46875 -1.484375 -5.203125 -0.4375 -3.09375 -0.4375 C -0.96875 -0.4375 0.28125 -1.484375 0.28125 -3.28125 C 0.28125 -5.046875 -0.984375 -6.125 -3.046875 -6.125 C -5.234375 -6.125 -6.46875 -5.09375 -6.46875 -3.265625 Z M -5.546875 -3.28125 C -5.546875 -4.40625 -4.625 -5.078125 -3.0625 -5.078125 C -1.578125 -5.078125 -0.640625 -4.375 -0.640625 -3.28125 C -0.640625 -2.15625 -1.578125 -1.46875 -3.09375 -1.46875 C -4.625 -1.46875 -5.546875 -2.15625 -5.546875 -3.28125 Z M -5.546875 -3.28125 "/>
</g>
<g id="glyph-1-10">
<path d="M 2.546875 -1.109375 C 0.96875 -2.3125 -1.21875 -3.078125 -3.09375 -3.078125 C -4.984375 -3.078125 -7.171875 -2.3125 -8.75 -1.109375 L -8.75 -0.453125 C -7.03125 -1.515625 -5.015625 -2.09375 -3.09375 -2.09375 C -1.1875 -2.09375 0.84375 -1.515625 2.546875 -0.453125 Z M 2.546875 -1.109375 "/>
</g>
<g id="glyph-1-11">
<path d="M -8.671875 -3.296875 C -8.671875 -2.515625 -8.3125 -1.78125 -7.734375 -1.34375 C -6.953125 -0.796875 -5.8125 -0.515625 -4.203125 -0.515625 C -1.265625 -0.515625 0.28125 -1.46875 0.28125 -3.296875 C 0.28125 -5.09375 -1.265625 -6.078125 -4.125 -6.078125 C -5.8125 -6.078125 -6.9375 -5.8125 -7.734375 -5.25 C -8.328125 -4.8125 -8.671875 -4.109375 -8.671875 -3.296875 Z M -7.734375 -3.296875 C -7.734375 -4.4375 -6.578125 -5 -4.21875 -5 C -1.75 -5 -0.59375 -4.453125 -0.59375 -3.28125 C -0.59375 -2.15625 -1.796875 -1.59375 -4.1875 -1.59375 C -6.578125 -1.59375 -7.734375 -2.15625 -7.734375 -3.296875 Z M -7.734375 -3.296875 "/>
</g>
<g id="glyph-1-12">
<path d="M -1.25 -2.296875 L -1.25 -1.046875 L 0 -1.046875 L 0 -2.296875 Z M -1.25 -2.296875 "/>
</g>
<g id="glyph-1-13">
<path d="M -8.515625 -5.71875 L -8.515625 -1.3125 L -3.875 -0.6875 L -3.875 -1.65625 C -4.46875 -2.140625 -4.671875 -2.5625 -4.671875 -3.234375 C -4.671875 -4.375 -3.890625 -5.078125 -2.625 -5.078125 C -1.40625 -5.078125 -0.65625 -4.375 -0.65625 -3.21875 C -0.65625 -2.296875 -1.125 -1.734375 -2.09375 -1.46875 L -2.09375 -0.421875 C -1.390625 -0.5625 -1.0625 -0.6875 -0.75 -0.9375 C -0.09375 -1.421875 0.28125 -2.28125 0.28125 -3.234375 C 0.28125 -4.953125 -0.96875 -6.15625 -2.765625 -6.15625 C -4.453125 -6.15625 -5.609375 -5.046875 -5.609375 -3.40625 C -5.609375 -2.8125 -5.453125 -2.328125 -5.09375 -1.84375 L -7.46875 -2.171875 L -7.46875 -5.71875 Z M -8.515625 -5.71875 "/>
</g>
<g id="glyph-1-14">
<path d="M -6.1875 -3.109375 L 0 -3.109375 L 0 -4.15625 L -8.671875 -4.15625 L -8.671875 -3.46875 C -7.34375 -3.09375 -7.15625 -2.859375 -6.953125 -1.21875 L -6.1875 -1.21875 Z M -6.1875 -3.109375 "/>
</g>
<g id="glyph-1-15">
<path d="M -1.046875 -6.078125 L -1.046875 -1.59375 C -1.765625 -1.703125 -2.21875 -2.09375 -2.859375 -3.125 L -3.53125 -4.328125 C -4.1875 -5.515625 -5.078125 -6.125 -6.140625 -6.125 C -6.859375 -6.125 -7.53125 -5.84375 -8 -5.34375 C -8.453125 -4.84375 -8.671875 -4.21875 -8.671875 -3.40625 C -8.671875 -2.328125 -8.296875 -1.53125 -7.546875 -1.0625 C -7.09375 -0.75 -6.546875 -0.625 -5.671875 -0.59375 L -5.671875 -1.65625 C -6.265625 -1.6875 -6.609375 -1.765625 -6.90625 -1.90625 C -7.421875 -2.1875 -7.75 -2.734375 -7.75 -3.375 C -7.75 -4.328125 -7.0625 -5.046875 -6.125 -5.046875 C -5.421875 -5.046875 -4.828125 -4.65625 -4.390625 -3.90625 L -3.75 -2.796875 C -2.71875 -1.015625 -1.90625 -0.5 -0.015625 -0.40625 L -0.015625 -6.078125 Z M -1.046875 -6.078125 "/>
</g>
</g>
<clipPath id="clip-0">
<path clip-rule="nonzero" d="M 59.039062 59.039062 L 131 59.039062 L 131 131 L 59.039062 131 Z M 59.039062 59.039062 "/>
</clipPath>
<clipPath id="clip-1">
<path clip-rule="nonzero" d="M 59.039062 59.039062 L 131 59.039062 L 131 132 L 59.039062 132 Z M 59.039062 59.039062 "/>
</clipPath>
</defs>
<rect x="-50" y="-28.6" width="600" height="343.2" fill="rgb(100%, 100%, 100%)" fill-opacity="1"/>
<path fill="none" stroke-width="0.75" stroke-linecap="round" stroke-linejoin="round" stroke="rgb(0%, 0%, 0%)" stroke-opacity="1" stroke-miterlimit="10" d="M 74.25 206.117188 L 75.796875 203.011719 L 77.34375 202.214844 L 78.890625 202.234375 L 80.433594 202.808594 L 81.980469 202.265625 L 83.527344 204.316406 L 85.074219 203.273438 L 86.621094 198.601562 L 88.164062 199.582031 L 89.710938 198.667969 L 91.257812 197.277344 L 92.804688 197.121094 L 94.347656 196.386719 L 95.894531 195.191406 L 97.441406 193.136719 L 98.988281 191.367188 L 100.53125 194.714844 L 102.078125 194.113281 L 103.625 191.191406 L 105.171875 190.769531 L 106.714844 191.84375 L 108.261719 192.828125 L 109.808594 192.589844 L 111.355469 188.597656 L 112.898438 188.230469 L 114.445312 184.007812 L 115.992188 181.359375 L 117.539062 182.691406 L 119.082031 183.859375 L 120.628906 178.027344 L 122.175781 175.40625 L 123.722656 175.667969 L 125.265625 179.398438 L 126.8125 178.871094 L 128.359375 179.039062 L 129.90625 181.777344 L 131.449219 184.675781 L 132.996094 186.363281 L 134.542969 186.761719 L 136.089844 188.085938 L 137.632812 186.613281 L 139.179688 186.195312 L 140.726562 182.34375 L 142.273438 181.914062 L 143.816406 181.96875 L 145.363281 178.753906 L 146.910156 183.765625 L 148.457031 176.886719 L 150 175.726562 L 151.546875 173.511719 L 153.09375 170.195312 L 154.640625 170.011719 L 156.1875 168.464844 L 157.730469 171.359375 L 159.277344 167.160156 L 160.824219 165.238281 L 162.371094 161.394531 L 163.914062 158.277344 L 165.460938 160.21875 L 167.007812 155.875 L 168.554688 158.605469 L 170.097656 153.941406 L 171.644531 160.109375 L 173.191406 161.785156 L 174.738281 162.957031 L 176.28125 152.730469 L 177.828125 152.746094 L 179.375 151.4375 L 180.921875 149.527344 L 182.464844 147.332031 L 184.011719 148.308594 L 185.558594 142.324219 L 187.105469 135.628906 L 188.648438 144.066406 L 190.195312 137.089844 L 191.742188 137.261719 L 193.289062 136.128906 L 194.832031 134.953125 L 196.378906 134.214844 L 197.925781 132.820312 L 199.472656 123.652344 L 201.015625 122.679688 L 202.5625 123.746094 L 204.109375 114.164062 L 205.65625 119.90625 L 207.199219 119.789062 L 208.746094 119.449219 L 210.292969 119.785156 L 211.839844 114.035156 L 213.382812 111.761719 L 214.929688 115.09375 L 216.476562 124.753906 L 218.023438 128.328125 L 219.566406 124.566406 L 221.113281 123.824219 L 222.660156 125.128906 L 224.207031 122.070312 L 225.753906 122.527344 L 227.296875 122.8125 L 228.84375 119.867188 L 230.390625 119.949219 L 231.9375 118.71875 L 233.480469 113.304688 L 235.027344 118.460938 L 236.574219 123.746094 L 238.121094 120.796875 L 239.664062 117.398438 L 241.210938 119.046875 L 242.757812 120.699219 L 244.304688 125.21875 L 245.847656 118.761719 L 247.394531 116.207031 L 248.941406 119.148438 L 250.488281 122.613281 L 252.03125 123.996094 L 253.578125 121.152344 L 255.125 121.492188 L 256.671875 126.683594 L 258.214844 127.496094 L 259.761719 126.925781 L 261.308594 125.503906 L 262.855469 126.453125 L 264.398438 122.59375 L 265.945312 123.492188 L 267.492188 125.871094 L 269.039062 127.308594 L 270.582031 130.902344 L 272.128906 129.507812 L 273.675781 136.238281 L 275.222656 134.84375 L 276.765625 133.363281 L 278.3125 133.585938 L 279.859375 132.128906 L 281.40625 138.578125 L 282.949219 138.859375 L 284.496094 139.730469 L 286.042969 136.480469 L 287.589844 137.0625 L 289.132812 135.324219 L 290.679688 137.675781 L 292.226562 135.902344 L 293.773438 131.035156 L 295.320312 132.03125 L 296.863281 131.9375 L 298.410156 133.390625 L 299.957031 131.433594 L 301.503906 128.167969 L 303.046875 121.59375 L 304.59375 115.5 L 306.140625 120.824219 L 307.6875 119.277344 L 309.230469 124.257812 L 310.777344 124.019531 L 312.324219 126.375 L 313.871094 122.546875 L 315.414062 129.980469 L 316.960938 130.820312 L 318.507812 133.222656 L 320.054688 123.816406 L 321.597656 122.199219 L 323.144531 124.59375 L 324.691406 124.066406 L 326.238281 123.636719 L 327.78125 123.667969 L 329.328125 123.210938 L 330.875 126.386719 L 332.421875 126.035156 L 333.964844 117.839844 L 335.511719 114.789062 L 337.058594 116.734375 L 338.605469 119.085938 L 340.148438 116.46875 L 341.695312 115.953125 L 343.242188 119.519531 L 344.789062 114.5625 L 346.332031 113.101562 L 347.878906 110 L 349.425781 110.433594 L 350.972656 108.175781 L 352.515625 108.414062 L 354.0625 104.617188 L 355.609375 104.515625 L 357.15625 109.605469 L 358.699219 106.542969 L 360.246094 103.210938 L 361.792969 101.417969 L 363.339844 102.214844 L 364.886719 109.699219 L 366.429688 107.5625 L 367.976562 108.867188 L 369.523438 116.261719 L 371.070312 114.863281 L 372.613281 116.515625 L 374.160156 118.199219 L 375.707031 118.3125 L 377.253906 123.511719 L 378.796875 118.820312 L 380.34375 117.492188 L 381.890625 114.890625 L 383.4375 109.105469 L 384.980469 109.246094 L 386.527344 105.609375 L 388.074219 104.242188 L 389.621094 100.414062 L 391.164062 100.914062 L 392.710938 96.277344 L 394.257812 95.5625 L 395.804688 93.796875 L 397.347656 89.421875 L 398.894531 88.988281 L 400.441406 85.558594 L 401.988281 81.917969 L 403.53125 85.296875 L 405.078125 95.753906 L 406.625 93.246094 L 408.171875 87.542969 L 409.714844 90.773438 L 411.261719 89.800781 L 412.808594 93.292969 L 414.355469 95.605469 L 415.898438 82.351562 L 417.445312 85.203125 L 418.992188 82.820312 L 420.539062 83.417969 L 422.082031 78.824219 L 423.628906 74.597656 L 425.175781 74.101562 L 426.722656 73.296875 L 428.265625 73.851562 L 429.8125 72.222656 L 431.359375 71.070312 L 432.90625 64.726562 L 434.453125 82.332031 L 435.996094 81.535156 L 437.542969 84.832031 L 439.089844 82.742188 L 440.636719 83.214844 L 442.179688 79.757812 L 443.726562 79.160156 L 445.273438 88.691406 L 446.820312 91.121094 L 448.363281 93.242188 L 449.910156 91.691406 L 451.457031 100.8125 L 453.003906 92.460938 L 454.546875 96.367188 "/>
<path fill="none" stroke-width="0.75" stroke-linecap="round" stroke-linejoin="round" stroke="rgb(87.45098%, 32.54902%, 41.960784%)" stroke-opacity="1" stroke-miterlimit="10" d="M 74.25 206.117188 L 75.796875 204.101562 L 77.34375 203.835938 L 78.890625 204.730469 L 80.433594 204.84375 L 83.527344 206.835938 L 85.074219 206.074219 L 86.621094 204.308594 L 88.164062 205.851562 L 89.710938 205.144531 L 91.257812 204.433594 L 92.804688 205.238281 L 94.347656 204.738281 L 95.894531 205.933594 L 97.441406 206.875 L 98.988281 203.964844 L 100.53125 205.652344 L 102.078125 205.847656 L 103.625 203.238281 L 105.171875 202.765625 L 106.714844 202.589844 L 108.261719 202.417969 L 109.808594 203.476562 L 111.355469 202.121094 L 112.898438 202.6875 L 114.445312 201.96875 L 115.992188 200.128906 L 117.539062 202.476562 L 119.082031 202.628906 L 120.628906 199.730469 L 122.175781 199.398438 L 123.722656 200.296875 L 125.265625 201.160156 L 126.8125 201.191406 L 128.359375 201.5 L 129.90625 202.617188 L 131.449219 203.101562 L 132.996094 204.902344 L 134.542969 204.945312 L 136.089844 205.414062 L 137.632812 206.015625 L 139.179688 204.683594 L 140.726562 205.609375 L 142.273438 205.550781 L 143.816406 206.351562 L 145.363281 205.773438 L 146.910156 204.734375 L 148.457031 201.8125 L 150 200.96875 L 151.546875 201.402344 L 153.09375 200.164062 L 154.640625 200.371094 L 156.1875 200.800781 L 157.730469 201.953125 L 159.277344 200.75 L 160.824219 200.25 L 162.371094 199.191406 L 163.914062 200.074219 L 165.460938 200.480469 L 167.007812 199.808594 L 168.554688 199.871094 L 170.097656 198.898438 L 171.644531 201.074219 L 173.191406 201.753906 L 174.738281 201.828125 L 176.28125 198.570312 L 177.828125 199.296875 L 179.375 198.527344 L 180.921875 198.800781 L 182.464844 198.644531 L 184.011719 197.761719 L 185.558594 197.375 L 187.105469 196.425781 L 188.648438 196.546875 L 190.195312 194.152344 L 191.742188 194.847656 L 193.289062 194.785156 L 194.832031 194.84375 L 196.378906 194.089844 L 197.925781 194.023438 L 199.472656 193.722656 L 201.015625 193.785156 L 202.5625 194.691406 L 204.109375 192.535156 L 205.65625 194.625 L 207.199219 194.578125 L 208.746094 193.765625 L 210.292969 194.558594 L 211.839844 193.25 L 213.382812 193.359375 L 214.929688 192.785156 L 216.476562 192.835938 L 218.023438 194.78125 L 219.566406 194.210938 L 221.113281 193.933594 L 222.660156 194.5 L 224.207031 193.054688 L 225.753906 193.105469 L 227.296875 193.28125 L 228.84375 193.507812 L 230.390625 193.460938 L 231.9375 192.164062 L 233.480469 191.527344 L 235.027344 192.171875 L 236.574219 192.4375 L 238.121094 193.09375 L 239.664062 192.976562 L 241.210938 193.667969 L 242.757812 193.746094 L 244.304688 193.960938 L 245.847656 192.960938 L 247.394531 192.507812 L 248.941406 192.203125 L 250.488281 193.996094 L 252.03125 193.71875 L 253.578125 193.222656 L 255.125 194.800781 L 256.671875 194.636719 L 258.214844 194.671875 L 259.761719 193.292969 L 261.308594 193.46875 L 262.855469 193.964844 L 264.398438 193.84375 L 265.945312 193.195312 L 267.492188 194.042969 L 269.039062 193.859375 L 270.582031 194.59375 L 272.128906 195.589844 L 273.675781 196.15625 L 275.222656 195.40625 L 276.765625 195.257812 L 278.3125 195.003906 L 279.859375 195.070312 L 281.40625 196.746094 L 282.949219 192.425781 L 284.496094 192.429688 L 286.042969 191.902344 L 287.589844 192.890625 L 289.132812 191.039062 L 290.679688 191.777344 L 292.226562 191.183594 L 293.773438 190.195312 L 295.320312 190.246094 L 296.863281 190.925781 L 298.410156 190.484375 L 299.957031 191.203125 L 301.503906 189.738281 L 303.046875 189.566406 L 304.59375 189.914062 L 306.140625 190.375 L 307.6875 189.183594 L 309.230469 190.871094 L 310.777344 190.710938 L 312.324219 190.867188 L 313.871094 190.304688 L 315.414062 192.195312 L 316.960938 192.320312 L 318.507812 192.644531 L 320.054688 190.324219 L 321.597656 189.878906 L 323.144531 190.359375 L 324.691406 189.621094 L 326.238281 188.25 L 327.78125 187.761719 L 329.328125 186.535156 L 330.875 187.671875 L 332.421875 186.917969 L 333.964844 185.90625 L 335.511719 184.121094 L 337.058594 184.539062 L 338.605469 184.027344 L 340.148438 183.902344 L 341.695312 183.65625 L 343.242188 183.46875 L 344.789062 183.515625 L 346.332031 183.082031 L 347.878906 182.398438 L 349.425781 182.476562 L 350.972656 181.207031 L 352.515625 180.453125 L 354.0625 179.628906 L 355.609375 179.375 L 357.15625 181.15625 L 358.699219 179.96875 L 360.246094 179.9375 L 361.792969 179.832031 L 363.339844 180.84375 L 364.886719 181.347656 L 366.429688 181.09375 L 367.976562 182.078125 L 369.523438 183.664062 L 371.070312 184.054688 L 372.613281 184.832031 L 374.160156 185.625 L 375.707031 185.351562 L 377.253906 186.214844 L 378.796875 184.929688 L 380.34375 184.953125 L 381.890625 183.773438 L 383.4375 183.753906 L 384.980469 184.300781 L 386.527344 184.59375 L 388.074219 185.160156 L 389.621094 184.324219 L 391.164062 183.226562 L 392.710938 182.824219 L 394.257812 183.222656 L 395.804688 182.238281 L 397.347656 181.691406 L 398.894531 181.113281 L 400.441406 181.144531 L 401.988281 179.472656 L 403.53125 179.109375 L 405.078125 177.917969 L 406.625 177.195312 L 408.171875 176.878906 L 409.714844 176.386719 L 411.261719 176.792969 L 412.808594 176.726562 L 414.355469 176.9375 L 415.898438 176.628906 L 417.445312 177.546875 L 418.992188 179.113281 L 420.539062 179.070312 L 422.082031 179.476562 L 423.628906 177.351562 L 425.175781 176.957031 L 426.722656 174.234375 L 428.265625 174.53125 L 429.8125 172.535156 L 431.359375 175.570312 L 432.90625 174.417969 L 434.453125 180.53125 L 435.996094 179.652344 L 437.542969 180.078125 L 439.089844 178.78125 L 440.636719 178.894531 L 442.179688 177.953125 L 443.726562 177.582031 L 445.273438 179.082031 L 446.820312 179.984375 L 448.363281 180.027344 L 449.910156 184.035156 L 451.457031 184.621094 L 453.003906 182.203125 L 454.546875 182.320312 "/>
<path fill="none" stroke-width="0.75" stroke-linecap="round" stroke-linejoin="round" stroke="rgb(38.039216%, 81.568627%, 30.980392%)" stroke-opacity="1" stroke-miterlimit="10" d="M 74.25 206.117188 L 75.796875 203.824219 L 77.34375 203.550781 L 78.890625 204.828125 L 80.433594 204.933594 L 81.980469 205.800781 L 83.527344 206.867188 L 85.074219 205.46875 L 86.621094 202.535156 L 88.164062 204.054688 L 89.710938 203.5 L 91.257812 202.367188 L 92.804688 203.148438 L 94.347656 202.3125 L 95.894531 203.011719 L 97.441406 203.464844 L 98.988281 200.660156 L 100.53125 202.285156 L 102.078125 202.070312 L 103.625 199.003906 L 105.171875 199.007812 L 106.714844 199.683594 L 108.261719 199.722656 L 109.808594 200.949219 L 111.355469 199.4375 L 112.898438 200.460938 L 114.445312 198.9375 L 115.992188 196.722656 L 117.539062 198.265625 L 119.082031 198.9375 L 120.628906 194.570312 L 122.175781 193.328125 L 123.722656 194.027344 L 125.265625 196.121094 L 126.8125 195.78125 L 128.359375 195.933594 L 129.90625 198.292969 L 131.449219 198.792969 L 132.996094 200.757812 L 134.542969 200.683594 L 136.089844 201.53125 L 137.632812 202.144531 L 139.179688 201.074219 L 140.726562 200.019531 L 142.273438 199.386719 L 143.816406 199.796875 L 145.363281 198.539062 L 146.910156 199.175781 L 148.457031 194.035156 L 150 192.683594 L 151.546875 193.527344 L 153.09375 191.925781 L 154.640625 191.46875 L 156.1875 189.953125 L 157.730469 192.0625 L 159.277344 190.324219 L 160.824219 188.367188 L 162.371094 187.445312 L 163.914062 187.757812 L 165.460938 188.910156 L 167.007812 186.566406 L 168.554688 187.042969 L 170.097656 184.785156 L 171.644531 188.078125 L 173.191406 189.132812 L 174.738281 189.550781 L 176.28125 185.34375 L 177.828125 185.664062 L 179.375 184.121094 L 180.921875 184.644531 L 182.464844 184.519531 L 184.011719 183.847656 L 185.558594 182.195312 L 187.105469 180.15625 L 188.648438 181.21875 L 190.195312 177.285156 L 191.742188 177.949219 L 193.289062 177.820312 L 194.832031 178.230469 L 196.378906 177.871094 L 197.925781 177.730469 L 199.472656 176.613281 L 201.015625 177.265625 L 202.5625 178.289062 L 204.109375 172.894531 L 205.65625 176.667969 L 207.199219 177.53125 L 208.746094 175.894531 L 210.292969 177.613281 L 211.839844 174.996094 L 213.382812 173.847656 L 214.929688 174.960938 L 216.476562 175.554688 L 218.023438 178.578125 L 219.566406 177.03125 L 221.113281 177.535156 L 222.660156 177.714844 L 224.207031 175.085938 L 225.753906 175.554688 L 227.296875 176.238281 L 228.84375 176.09375 L 230.390625 176.449219 L 231.9375 175.085938 L 233.480469 173.929688 L 235.027344 175.230469 L 236.574219 176.476562 L 238.121094 176.199219 L 239.664062 174.554688 L 241.210938 174.816406 L 242.757812 174.128906 L 244.304688 175.554688 L 245.847656 173.355469 L 247.394531 172.484375 L 248.941406 172.035156 L 250.488281 174.441406 L 252.03125 174.839844 L 253.578125 172.472656 L 255.125 173.914062 L 256.671875 176.625 L 258.214844 177.375 L 259.761719 176.296875 L 261.308594 176.429688 L 262.855469 177.648438 L 264.398438 176.234375 L 265.945312 176.144531 L 267.492188 177.578125 L 269.039062 177.945312 L 270.582031 179.167969 L 272.128906 178.898438 L 273.675781 181.523438 L 275.222656 180.851562 L 276.765625 180.082031 L 278.3125 180.113281 L 279.859375 179.546875 L 281.40625 182.207031 L 282.949219 180.679688 L 284.496094 180.703125 L 286.042969 179.527344 L 287.589844 180.308594 L 289.132812 178.398438 L 290.679688 179.917969 L 292.226562 179 L 293.773438 177.183594 L 295.320312 177.476562 L 296.863281 177.796875 L 298.410156 177.507812 L 299.957031 177.734375 L 301.503906 175.339844 L 303.046875 173.617188 L 304.59375 171.597656 L 306.140625 173.160156 L 307.6875 171.730469 L 309.230469 173.4375 L 310.777344 172.902344 L 312.324219 174.230469 L 313.871094 173.59375 L 315.414062 177.527344 L 316.960938 177.769531 L 318.507812 178.539062 L 320.054688 174.71875 L 321.597656 173.980469 L 323.144531 174.390625 L 324.691406 173.429688 L 326.238281 172.046875 L 327.78125 172.125 L 329.328125 171.34375 L 330.875 172.738281 L 332.421875 172 L 333.964844 169.269531 L 335.511719 166.460938 L 337.058594 167.425781 L 338.605469 166.179688 L 340.148438 164.980469 L 341.695312 164.0625 L 343.242188 164.289062 L 344.789062 163.726562 L 346.332031 163.101562 L 347.878906 161.125 L 349.425781 161.101562 L 350.972656 159.859375 L 352.515625 160.195312 L 354.0625 158.378906 L 355.609375 158.671875 L 357.15625 161.253906 L 358.699219 158.949219 L 360.246094 158.984375 L 361.792969 158.9375 L 363.339844 159.429688 L 364.886719 161.726562 L 366.429688 160.878906 L 367.976562 161.753906 L 369.523438 165.742188 L 371.070312 165.929688 L 372.613281 166.78125 L 374.160156 168.140625 L 375.707031 167.8125 L 377.253906 169.394531 L 378.796875 167.683594 L 380.34375 167.671875 L 381.890625 166.996094 L 383.4375 165.230469 L 384.980469 165.265625 L 386.527344 164.375 L 388.074219 164.679688 L 389.621094 163.203125 L 391.164062 161.972656 L 392.710938 161.101562 L 394.257812 160.507812 L 395.804688 159.398438 L 397.347656 158.097656 L 398.894531 156.644531 L 400.441406 155.050781 L 401.988281 152.429688 L 403.53125 153.570312 L 405.078125 153.878906 L 406.625 153.398438 L 408.171875 149.597656 L 409.714844 149.863281 L 411.261719 150.058594 L 412.808594 149.363281 L 414.355469 149.671875 L 415.898438 147.832031 L 417.445312 150.242188 L 418.992188 151.554688 L 420.539062 150.636719 L 422.082031 149.546875 L 423.628906 146.28125 L 425.175781 145.984375 L 426.722656 142.898438 L 428.265625 142.289062 L 429.8125 139.558594 L 431.359375 140.574219 L 432.90625 137.726562 L 434.453125 148.292969 L 435.996094 147.402344 L 437.542969 149.390625 L 439.089844 148.042969 L 440.636719 148.867188 L 442.179688 147.578125 L 443.726562 147.449219 L 445.273438 151.578125 L 446.820312 153.054688 L 448.363281 153.707031 L 449.910156 157.5625 L 451.457031 160.65625 L 453.003906 157.347656 L 454.546875 158.117188 "/>
<path fill="none" stroke-width="0.75" stroke-linecap="round" stroke-linejoin="round" stroke="rgb(13.333333%, 59.215686%, 90.196078%)" stroke-opacity="1" stroke-miterlimit="10" d="M 74.25 206.117188 L 75.796875 205.355469 L 77.34375 204.769531 L 78.890625 205.566406 L 80.433594 205.488281 L 81.980469 205.964844 L 83.527344 205.886719 L 85.074219 205.738281 L 86.621094 204.035156 L 88.164062 204.769531 L 89.710938 204.199219 L 91.257812 204.097656 L 92.804688 203.691406 L 94.347656 203.878906 L 95.894531 204.132812 L 97.441406 204.148438 L 98.988281 202.921875 L 100.53125 203.335938 L 102.078125 203.65625 L 103.625 201.894531 L 105.171875 202.292969 L 106.714844 202.378906 L 108.261719 202.804688 L 109.808594 202.605469 L 111.355469 202.25 L 112.898438 203.082031 L 115.992188 202.105469 L 117.539062 203.21875 L 119.082031 202.976562 L 120.628906 201.269531 L 122.175781 200.933594 L 123.722656 201.109375 L 125.265625 201.738281 L 126.8125 201.589844 L 128.359375 201.832031 L 129.90625 202.726562 L 131.449219 202.429688 L 132.996094 203.054688 L 134.542969 203.039062 L 136.089844 204.074219 L 137.632812 203.945312 L 139.179688 203.789062 L 140.726562 202.933594 L 142.273438 203.199219 L 143.816406 203.71875 L 145.363281 203.535156 L 146.910156 202.632812 L 148.457031 200.949219 L 150 199.996094 L 151.546875 199.667969 L 153.09375 199.136719 L 154.640625 199.421875 L 156.1875 199.222656 L 157.730469 199.75 L 159.277344 199.367188 L 160.824219 199.136719 L 162.371094 198.816406 L 163.914062 199.457031 L 165.460938 200.304688 L 167.007812 199.851562 L 168.554688 199.828125 L 170.097656 199.855469 L 171.644531 201.878906 L 173.191406 202.738281 L 174.738281 203.59375 L 176.28125 201.644531 L 177.828125 202.386719 L 179.375 201.707031 L 180.921875 200.808594 L 182.464844 200.914062 L 184.011719 201.390625 L 185.558594 200.710938 L 187.105469 200.296875 L 188.648438 199.40625 L 190.195312 198.207031 L 191.742188 198.125 L 193.289062 197.980469 L 194.832031 197.941406 L 196.378906 197.957031 L 197.925781 197.921875 L 199.472656 198.769531 L 201.015625 198.753906 L 202.5625 198.816406 L 204.109375 197.378906 L 205.65625 197.238281 L 207.199219 197.210938 L 208.746094 195.992188 L 210.292969 196.269531 L 211.839844 195.804688 L 213.382812 195.878906 L 214.929688 195.652344 L 216.476562 195.410156 L 218.023438 196.558594 L 219.566406 196.871094 L 221.113281 196.589844 L 222.660156 196.429688 L 224.207031 195.714844 L 225.753906 196.050781 L 227.296875 196.230469 L 228.84375 197.003906 L 230.390625 197.128906 L 231.9375 196.742188 L 233.480469 197.019531 L 235.027344 197.414062 L 236.574219 197.480469 L 238.121094 197.6875 L 239.664062 197.3125 L 241.210938 196.960938 L 242.757812 196.617188 L 244.304688 196.917969 L 245.847656 195.878906 L 247.394531 196.09375 L 248.941406 196.15625 L 250.488281 196.980469 L 252.03125 197.269531 L 253.578125 196.957031 L 255.125 197.675781 L 256.671875 196.988281 L 258.214844 197.117188 L 259.761719 196.105469 L 261.308594 195.75 L 262.855469 196.007812 L 264.398438 195.054688 L 265.945312 194.773438 L 267.492188 195.796875 L 269.039062 195.890625 L 270.582031 196.828125 L 272.128906 197.207031 L 273.675781 197.492188 L 275.222656 197.949219 L 276.765625 197.972656 L 278.3125 197.839844 L 279.859375 197.8125 L 281.40625 198.9375 L 282.949219 198.539062 L 284.496094 198.605469 L 286.042969 197.925781 L 287.589844 198.730469 L 289.132812 198.875 L 290.679688 199.589844 L 292.226562 199.285156 L 293.773438 198.644531 L 295.320312 199.117188 L 296.863281 199.441406 L 298.410156 199.167969 L 299.957031 199.074219 L 301.503906 198.371094 L 303.046875 197.359375 L 304.59375 197.675781 L 306.140625 197.824219 L 307.6875 196.664062 L 309.230469 197.292969 L 310.777344 197.460938 L 312.324219 197.46875 L 313.871094 196.972656 L 315.414062 198.464844 L 316.960938 198.34375 L 318.507812 198.421875 L 320.054688 196.679688 L 321.597656 196.652344 L 323.144531 196.78125 L 324.691406 196.050781 L 326.238281 195.117188 L 327.78125 194.925781 L 329.328125 195.078125 L 330.875 195.484375 L 332.421875 195.722656 L 333.964844 195.148438 L 335.511719 194.3125 L 337.058594 194.746094 L 338.605469 194.835938 L 340.148438 194.464844 L 341.695312 194.054688 L 343.242188 194.507812 L 344.789062 193.859375 L 346.332031 193.597656 L 347.878906 192.816406 L 349.425781 192.867188 L 350.972656 192.679688 L 352.515625 193.066406 L 354.0625 192.398438 L 355.609375 192.363281 L 357.15625 192.972656 L 358.699219 192.898438 L 360.246094 192.449219 L 361.792969 192.5 L 363.339844 192.867188 L 364.886719 193.671875 L 366.429688 193.542969 L 367.976562 193.847656 L 369.523438 195.003906 L 371.070312 194.601562 L 372.613281 194.824219 L 374.160156 195.351562 L 375.707031 194.792969 L 377.253906 194.84375 L 378.796875 194.375 L 380.34375 194.582031 L 381.890625 193.972656 L 383.4375 193.40625 L 384.980469 193.625 L 386.527344 193.222656 L 388.074219 192.792969 L 389.621094 192.5625 L 391.164062 192.15625 L 392.710938 191.921875 L 394.257812 191.3125 L 395.804688 191.234375 L 397.347656 190.847656 L 398.894531 190.386719 L 400.441406 190.257812 L 401.988281 188.949219 L 403.53125 188.925781 L 405.078125 188.554688 L 406.625 187.949219 L 408.171875 186.6875 L 409.714844 186.75 L 411.261719 186.988281 L 412.808594 186.695312 L 414.355469 187.078125 L 415.898438 187.316406 L 417.445312 187.902344 L 418.992188 188.214844 L 420.539062 187.953125 L 422.082031 187.632812 L 423.628906 186.296875 L 425.175781 186.429688 L 426.722656 186.03125 L 428.265625 186.269531 L 429.8125 185.011719 L 431.359375 184.675781 L 432.90625 183.3125 L 434.453125 187.003906 L 435.996094 186.585938 L 437.542969 186.691406 L 439.089844 186.136719 L 440.636719 186.078125 L 442.179688 185.28125 L 443.726562 184.410156 L 445.273438 186.421875 L 446.820312 187.0625 L 448.363281 186.757812 L 449.910156 186.480469 L 451.457031 186.648438 L 453.003906 185.480469 L 454.546875 185.253906 "/>
<g fill="rgb(0%, 0%, 0%)" fill-opacity="1">
<use xlink:href="#glyph-0-0" x="250.898438" y="267.029297"/>
<use xlink:href="#glyph-0-1" x="257.898438" y="267.029297"/>
<use xlink:href="#glyph-0-2" x="260.898438" y="267.029297"/>
<use xlink:href="#glyph-0-3" x="270.898438" y="267.029297"/>
</g>
<g fill="rgb(0%, 0%, 0%)" fill-opacity="1">
<use xlink:href="#glyph-1-0" x="12.708984" y="171.300781"/>
<use xlink:href="#glyph-1-1" x="12.708984" y="168.300781"/>
<use xlink:href="#glyph-1-2" x="12.708984" y="162.300781"/>
<use xlink:href="#glyph-1-3" x="12.708984" y="158.300781"/>
<use xlink:href="#glyph-1-4" x="12.708984" y="151.300781"/>
<use xlink:href="#glyph-1-1" x="12.708984" y="144.300781"/>
<use xlink:href="#glyph-1-5" x="12.708984" y="138.300781"/>
<use xlink:href="#glyph-1-6" x="12.708984" y="131.300781"/>
<use xlink:href="#glyph-1-7" x="12.708984" y="124.300781"/>
<use xlink:href="#glyph-1-8" x="12.708984" y="117.300781"/>
<use xlink:href="#glyph-1-9" x="12.708984" y="114.300781"/>
<use xlink:href="#glyph-1-0" x="12.708984" y="107.300781"/>
<use xlink:href="#glyph-1-10" x="12.708984" y="104.300781"/>
</g>
<path fill="none" stroke-width="0.75" stroke-linecap="round" stroke-linejoin="round" stroke="rgb(0%, 0%, 0%)" stroke-opacity="1" stroke-miterlimit="10" d="M 72.707031 212.558594 L 459.1875 212.558594 "/>
<path fill="none" stroke-width="0.75" stroke-linecap="round" stroke-linejoin="round" stroke="rgb(0%, 0%, 0%)" stroke-opacity="1" stroke-miterlimit="10" d="M 72.707031 212.558594 L 72.707031 219.761719 "/>
<path fill="none" stroke-width="0.75" stroke-linecap="round" stroke-linejoin="round" stroke="rgb(0%, 0%, 0%)" stroke-opacity="1" stroke-miterlimit="10" d="M 150 212.558594 L 150 219.761719 "/>
<path fill="none" stroke-width="0.75" stroke-linecap="round" stroke-linejoin="round" stroke="rgb(0%, 0%, 0%)" stroke-opacity="1" stroke-miterlimit="10" d="M 227.296875 212.558594 L 227.296875 219.761719 "/>
<path fill="none" stroke-width="0.75" stroke-linecap="round" stroke-linejoin="round" stroke="rgb(0%, 0%, 0%)" stroke-opacity="1" stroke-miterlimit="10" d="M 304.59375 212.558594 L 304.59375 219.761719 "/>
<path fill="none" stroke-width="0.75" stroke-linecap="round" stroke-linejoin="round" stroke="rgb(0%, 0%, 0%)" stroke-opacity="1" stroke-miterlimit="10" d="M 381.890625 212.558594 L 381.890625 219.761719 "/>
<path fill="none" stroke-width="0.75" stroke-linecap="round" stroke-linejoin="round" stroke="rgb(0%, 0%, 0%)" stroke-opacity="1" stroke-miterlimit="10" d="M 459.1875 212.558594 L 459.1875 219.761719 "/>
<g fill="rgb(0%, 0%, 0%)" fill-opacity="1">
<use xlink:href="#glyph-0-4" x="69.207031" y="238.228516"/>
</g>
<g fill="rgb(0%, 0%, 0%)" fill-opacity="1">
<use xlink:href="#glyph-0-5" x="143" y="238.228516"/>
<use xlink:href="#glyph-0-4" x="150" y="238.228516"/>
</g>
<g fill="rgb(0%, 0%, 0%)" fill-opacity="1">
<use xlink:href="#glyph-0-6" x="216.796875" y="238.228516"/>
<use xlink:href="#glyph-0-4" x="223.796875" y="238.228516"/>
<use xlink:href="#glyph-0-4" x="230.796875" y="238.228516"/>
</g>
<g fill="rgb(0%, 0%, 0%)" fill-opacity="1">
<use xlink:href="#glyph-0-6" x="294.09375" y="238.228516"/>
<use xlink:href="#glyph-0-5" x="301.09375" y="238.228516"/>
<use xlink:href="#glyph-0-4" x="308.09375" y="238.228516"/>
</g>
<g fill="rgb(0%, 0%, 0%)" fill-opacity="1">
<use xlink:href="#glyph-0-7" x="371.390625" y="238.228516"/>
<use xlink:href="#glyph-0-4" x="378.390625" y="238.228516"/>
<use xlink:href="#glyph-0-4" x="385.390625" y="238.228516"/>
</g>
<g fill="rgb(0%, 0%, 0%)" fill-opacity="1">
<use xlink:href="#glyph-0-7" x="448.6875" y="238.228516"/>
<use xlink:href="#glyph-0-5" x="455.6875" y="238.228516"/>
<use xlink:href="#glyph-0-4" x="462.6875" y="238.228516"/>
</g>
<path fill="none" stroke-width="0.75" stroke-linecap="round" stroke-linejoin="round" stroke="rgb(0%, 0%, 0%)" stroke-opacity="1" stroke-miterlimit="10" d="M 59.039062 206.117188 L 59.039062 84.109375 "/>
<path fill="none" stroke-width="0.75" stroke-linecap="round" stroke-linejoin="round" stroke="rgb(0%, 0%, 0%)" stroke-opacity="1" stroke-miterlimit="10" d="M 59.039062 206.117188 L 51.839844 206.117188 "/>
<path fill="none" stroke-width="0.75" stroke-linecap="round" stroke-linejoin="round" stroke="rgb(0%, 0%, 0%)" stroke-opacity="1" stroke-miterlimit="10" d="M 59.039062 175.613281 L 51.839844 175.613281 "/>
<path fill="none" stroke-width="0.75" stroke-linecap="round" stroke-linejoin="round" stroke="rgb(0%, 0%, 0%)" stroke-opacity="1" stroke-miterlimit="10" d="M 59.039062 145.113281 L 51.839844 145.113281 "/>
<path fill="none" stroke-width="0.75" stroke-linecap="round" stroke-linejoin="round" stroke="rgb(0%, 0%, 0%)" stroke-opacity="1" stroke-miterlimit="10" d="M 59.039062 114.609375 L 51.839844 114.609375 "/>
<path fill="none" stroke-width="0.75" stroke-linecap="round" stroke-linejoin="round" stroke="rgb(0%, 0%, 0%)" stroke-opacity="1" stroke-miterlimit="10" d="M 59.039062 84.109375 L 51.839844 84.109375 "/>
<g fill="rgb(0%, 0%, 0%)" fill-opacity="1">
<use xlink:href="#glyph-1-11" x="41.509766" y="214.617188"/>
<use xlink:href="#glyph-1-12" x="41.509766" y="207.617188"/>
<use xlink:href="#glyph-1-11" x="41.509766" y="204.617188"/>
</g>
<g fill="rgb(0%, 0%, 0%)" fill-opacity="1">
<use xlink:href="#glyph-1-11" x="41.509766" y="184.113281"/>
<use xlink:href="#glyph-1-12" x="41.509766" y="177.113281"/>
<use xlink:href="#glyph-1-13" x="41.509766" y="174.113281"/>
</g>
<g fill="rgb(0%, 0%, 0%)" fill-opacity="1">
<use xlink:href="#glyph-1-14" x="41.509766" y="153.613281"/>
<use xlink:href="#glyph-1-12" x="41.509766" y="146.613281"/>
<use xlink:href="#glyph-1-11" x="41.509766" y="143.613281"/>
</g>
<g fill="rgb(0%, 0%, 0%)" fill-opacity="1">
<use xlink:href="#glyph-1-14" x="41.509766" y="123.109375"/>
<use xlink:href="#glyph-1-12" x="41.509766" y="116.109375"/>
<use xlink:href="#glyph-1-13" x="41.509766" y="113.109375"/>
</g>
<g fill="rgb(0%, 0%, 0%)" fill-opacity="1">
<use xlink:href="#glyph-1-15" x="41.509766" y="92.609375"/>
<use xlink:href="#glyph-1-12" x="41.509766" y="85.609375"/>
<use xlink:href="#glyph-1-11" x="41.509766" y="82.609375"/>
</g>
<path fill="none" stroke-width="0.75" stroke-linecap="round" stroke-linejoin="round" stroke="rgb(0%, 0%, 0%)" stroke-opacity="1" stroke-miterlimit="10" d="M 59.039062 212.558594 L 469.761719 212.558594 L 469.761719 59.039062 L 59.039062 59.039062 Z M 59.039062 212.558594 "/>
<g clip-path="url(#clip-0)">
<path fill-rule="nonzero" fill="rgb(100%, 100%, 100%)" fill-opacity="1" d="M 59.039062 59.039062 L 130.097656 59.039062 L 130.097656 130.804688 L 59.039062 130.804688 Z M 59.039062 59.039062 "/>
</g>
<g clip-path="url(#clip-1)">
<path fill="none" stroke-width="0.75" stroke-linecap="round" stroke-linejoin="round" stroke="rgb(0%, 0%, 0%)" stroke-opacity="1" stroke-miterlimit="10" d="M 59.039062 59.039062 L 130.097656 59.039062 L 130.097656 130.804688 L 59.039062 130.804688 Z M 59.039062 59.039062 "/>
</g>
<path fill="none" stroke-width="0.75" stroke-linecap="round" stroke-linejoin="round" stroke="rgb(0%, 0%, 0%)" stroke-opacity="1" stroke-miterlimit="10" d="M 69.832031 73.394531 L 91.421875 73.394531 "/>
<path fill="none" stroke-width="0.75" stroke-linecap="round" stroke-linejoin="round" stroke="rgb(87.45098%, 32.54902%, 41.960784%)" stroke-opacity="1" stroke-miterlimit="10" d="M 69.832031 87.746094 L 91.421875 87.746094 "/>
<path fill="none" stroke-width="0.75" stroke-linecap="round" stroke-linejoin="round" stroke="rgb(38.039216%, 81.568627%, 30.980392%)" stroke-opacity="1" stroke-miterlimit="10" d="M 69.832031 102.101562 L 91.421875 102.101562 "/>
<path fill="none" stroke-width="0.75" stroke-linecap="round" stroke-linejoin="round" stroke="rgb(13.333333%, 59.215686%, 90.196078%)" stroke-opacity="1" stroke-miterlimit="10" d="M 69.832031 116.453125 L 91.421875 116.453125 "/>
<g fill="rgb(0%, 0%, 0%)" fill-opacity="1">
<use xlink:href="#glyph-0-3" x="102.214844" y="77.642578"/>
<use xlink:href="#glyph-0-8" x="109.214844" y="77.642578"/>
</g>
<g fill="rgb(0%, 0%, 0%)" fill-opacity="1">
<use xlink:href="#glyph-0-9" x="102.214844" y="91.994141"/>
<use xlink:href="#glyph-0-10" x="108.214844" y="91.994141"/>
<use xlink:href="#glyph-0-2" x="114.214844" y="91.994141"/>
</g>
<g fill="rgb(0%, 0%, 0%)" fill-opacity="1">
<use xlink:href="#glyph-0-3" x="102.214844" y="106.349609"/>
<use xlink:href="#glyph-0-11" x="109.214844" y="106.349609"/>
</g>
<g fill="rgb(0%, 0%, 0%)" fill-opacity="1">
<use xlink:href="#glyph-0-1" x="102.214844" y="120.701172"/>
<use xlink:href="#glyph-0-12" x="105.214844" y="120.701172"/>
<use xlink:href="#glyph-0-13" x="112.214844" y="120.701172"/>
<use xlink:href="#glyph-0-10" x="118.214844" y="120.701172"/>
</g>
</svg>
